<svg width="322" height="301" viewBox="0 0 322 301" fill="none" xmlns="http://www.w3.org/2000/svg">
<path d="M136.858 236.334C133.138 217.132 146.932 173.275 154.293 153.747C156.747 154.908 177.282 150.908 183.869 141.359C189.139 133.72 198.088 130.719 202.467 129.358C208.279 127.551 217.965 127.809 219.773 132.197L221.711 136.713C228.039 154.908 222.529 182.566 218.611 194.911L204.146 197.492C193.194 179.736 198.808 158.091 202.984 149.489C198.541 155.476 186.065 161.79 180.382 164.199C180.124 180.071 155.843 234.785 150.548 238.269C146.312 241.056 139.656 238.14 136.858 236.334Z" fill="black"/>
<path d="M146.135 239.496L144.327 242.782M138.643 237.413L135.192 246.524L134.896 247.305C134.568 248.094 134.341 249.417 134.896 250.544C135.288 251.339 136.07 252.037 137.48 252.381C140.89 253.214 153.714 254.117 159.699 254.464C160.732 254.594 162.696 254.099 162.282 251.08C161.869 248.06 159.699 245.297 157.245 244.182C155.254 243.277 150.12 241.873 144.327 242.782L138.643 237.413ZM142.518 243.14C143.126 242.994 143.73 242.876 144.327 242.782L142.518 243.14Z" stroke="black" stroke-width="2" stroke-linecap="round"/>
<path d="M206.209 196.791C206.08 200.62 206.428 208.158 207.374 209.311C208.54 210.731 209.964 210.86 218.639 208.149C225.58 205.981 228.35 205.955 230.034 205.697C231.199 205.518 232.623 205.361 232.623 202.47C232.623 198.856 231.199 196.404 226.796 195.888C223.275 195.475 218.251 197.609 216.179 198.727V195.242" stroke="black" stroke-width="2" stroke-linecap="round"/>
<path d="M189.635 66.8784C176.335 68.2225 150.198 73.8878 152.058 85.7953C152.343 86.8064 153.162 88.4196 154.689 89.9371C156.159 91.3987 158.286 92.7716 161.226 93.4319" stroke="black" stroke-width="2" stroke-linecap="round"/>
<path d="M154.689 89.9373C158.848 96.4088 171.04 110.465 186.536 114.917" stroke="black" stroke-width="2" stroke-linecap="round"/>
<path d="M186.437 114.917C187.384 113.645 189.873 111.345 192.796 111.236" stroke="black" stroke-width="2" stroke-linecap="round"/>
<path d="M192.795 111.235C192.709 107.601 189.643 98.2295 178.069 89.8154" stroke="black" stroke-width="2" stroke-linecap="round"/>
<path d="M174.722 92.828C175.924 90.8831 179.614 86.7544 184.763 85.7996" stroke="black" stroke-width="2" stroke-linecap="round"/>
<path d="M203.506 89.1462C204.063 89.8056 205.179 91.5988 205.179 93.4972" stroke="black" stroke-width="2" stroke-linecap="round"/>
<path d="M203.374 116.929C206.011 116.8 211.52 116.413 212.454 115.897C213.621 115.253 213.881 115.253 213.881 113.963C213.881 112.673 203.374 114.866 203.374 110.739C204.325 109.793 205.864 107.669 204.412 106.74C202.959 105.812 199.915 108.503 198.575 109.965C197.191 111.426 194.086 113.731 192.737 111.254" stroke="black" stroke-width="2" stroke-linecap="round"/>
<path d="M186.771 114.866C187.938 118.262 192.141 124.358 199.612 121.572C207.084 118.787 207.395 117.316 206.617 116.929" stroke="black" stroke-width="2" stroke-linecap="round"/>
<path d="M251.118 116.311C252.934 115.815 256.902 113.506 258.251 108.242C259.6 102.977 257.775 102.951 256.695 103.596" stroke="black" stroke-width="2" stroke-linecap="round"/>
<path d="M244.375 112.5C244.936 109.575 246.916 103.932 250.34 104.758" stroke="black" stroke-width="2" stroke-linecap="round"/>
<path d="M245.801 107.725C243.415 105.764 241.954 110.263 241.521 112.758C238.824 113.583 237.804 117.489 237.631 119.338C243.873 119.979 248.309 118.302 251.118 116.311C252.838 115.092 253.949 113.754 254.49 112.758C255.831 109.188 257.784 101.739 254.879 100.5C251.974 99.2612 251.162 102.048 251.118 103.596C251.43 107.106 249.605 110.994 248.655 112.5" stroke="black" stroke-width="2" stroke-linecap="round"/>
<path d="M208.191 116.887C213.811 122.134 227.566 129.971 237.63 119.339" stroke="black" stroke-width="2" stroke-linecap="round"/>
<path d="M207.187 117.595C207.187 120.031 206.585 125.583 204.175 128.305" stroke="black" stroke-width="2" stroke-linecap="round"/>
<path d="M154.641 123.285C149.337 130.444 141.912 146.624 154.641 154.076" stroke="black" stroke-width="2" stroke-linecap="round"/>
<path d="M313.283 92.4932L316.296 87.4729" stroke="black" stroke-width="2" stroke-linecap="round"/>
<path d="M314.756 95.1175L320.312 94.8591" stroke="black" stroke-width="2" stroke-linecap="round"/>
<path d="M313.618 98.1831L316.965 102.534" stroke="black" stroke-width="2" stroke-linecap="round"/>
<path d="M204.215 255.823H113.809V300" stroke="#A0A0A0" stroke-width="2" stroke-linecap="round"/>
<path d="M267.072 211.776H193.092V265.641" stroke="#A0A0A0" stroke-width="2" stroke-linecap="round"/>
<path d="M315.961 150.032H255.949V221.981" stroke="#A0A0A0" stroke-width="2" stroke-linecap="round"/>
<path d="M305.355 103.036V160.108" stroke="#A0A0A0" stroke-width="2" stroke-linecap="round"/>
<path d="M305.355 83.1218V87.9748" stroke="black" stroke-width="2" stroke-linecap="round"/>
<path d="M188.124 118.109L114.033 126.631C105.462 119.765 107.536 109.515 109.644 105.248L161.146 99.0745" stroke="black" stroke-width="2" stroke-linecap="round"/>
<path d="M213.552 116.051L238.98 113.608" stroke="black" stroke-width="2" stroke-linecap="round"/>
<path d="M257.567 110.907L274.218 109.749L296.549 99.6273C293.864 96.777 295.337 94.2381 296.455 93.3298L274.218 88.1421L186.187 95.4731" stroke="black" stroke-width="2" stroke-linecap="round"/>
<path d="M101.666 105.354L109.213 104.542C103.979 116.269 109.979 124.247 113.809 127.351L105 128.64C97.6374 119.673 99.5355 109.638 101.666 105.354Z" fill="black"/>
<path d="M297.352 100.191C294.551 97.2673 296.125 93.7852 297.292 92.6606L307.928 95.2856L297.352 100.191Z" fill="black"/>
<path d="M274.46 88.1421C271.682 91.669 267.792 100.891 274.46 109.562" stroke="black" stroke-width="2"/>
<path d="M210.472 69.1366C212.686 67.7741 229.34 69.0874 232.577 48.1389C238.12 48.2038 241.135 43.6631 236.905 41.7199C232.396 39.3948 232.735 35.1262 233.552 32.6111C234.85 29.3126 234.929 25.8496 234.649 25.1252" stroke="black" stroke-width="2" stroke-linecap="round"/>
<path d="M227.691 40.5744C228.32 40.5817 228.839 39.8228 228.85 38.8793C228.861 37.9358 228.36 37.165 227.731 37.1576C227.102 37.1503 226.583 37.9091 226.572 38.8527C226.561 39.7962 227.062 40.567 227.691 40.5744Z" fill="black"/>
<path d="M224.599 33.6602C225.523 32.6715 227.915 31.2254 230.082 33.3496" stroke="black" stroke-width="2" stroke-linecap="round"/>
<path d="M218.316 52.9099C220.016 55.5255 221.882 56.2682 225.507 54.5803" stroke="black" stroke-width="2" stroke-linecap="round"/>
<path d="M204.402 34.5769C204.008 35.4417 203.678 37.405 205.509 38.3395" stroke="black" stroke-width="2" stroke-linecap="round"/>
<path d="M184.891 25.6959C182.735 37.4955 189.483 46.3778 194.375 53.2061C199.6 50.3833 208.163 43.6708 204.879 42.9462C201.427 42.1848 197.786 32.7689 201.138 29.8885C205.071 26.5091 208.616 31.6223 209.292 35.4994L212.46 30.0211C211.564 26.1894 211.213 19.4681 216.974 23.2361C222.735 27.0041 231.185 26.0171 234.691 25.0526C241.602 20.1057 252.339 8.56679 240 1.98652C229.737 -3.48645 216.382 3.43287 208.23 9.65024C202.71 8.19304 187.832 9.60767 184.891 25.6959Z" fill="black"/>
<path d="M194.759 52.4155C197.253 55.419 198.493 57.9131 198.338 63.0797" stroke="black" stroke-width="2" stroke-linecap="round"/>
<path d="M191.983 69.9968C191.11 66.9498 190.598 61.1383 195.538 62.2679C201.714 63.6796 214.301 69.7863 213.379 73.1714" stroke="black" stroke-width="2" stroke-linecap="round"/>
<path d="M213.379 77.9343C217.897 82.1179 218.901 84.7954 219.57 89.8158" stroke="black" stroke-width="2" stroke-linecap="round"/>
<path d="M1.68823 213.635C7.82597 213.076 22.2887 216.736 31.9499 235.559C32.2026 236.051 32.9151 236.064 33.1668 235.571C43.0766 216.172 55.2392 196.492 93.6828 220.187C94.2739 220.551 95.0494 219.891 94.7565 219.262C88.5193 205.847 85.1486 180.265 114.213 167.573C114.796 167.318 114.771 166.452 114.16 166.273L106.642 164.076C105.953 163.874 106.028 162.929 106.743 162.864C114.488 162.167 125.414 162.621 121.652 167.191C117.26 172.526 116.18 175.899 117.251 181.469" stroke="#A0A0A0" stroke-width="2" stroke-linecap="round"/>
</svg>
