<svg width="424" height="401" viewBox="0 0 424 401" fill="none" xmlns="http://www.w3.org/2000/svg">
<path d="M19.0614 184.073C21.4212 184.073 23.3342 182.16 23.3342 179.8C23.3342 177.44 21.4212 175.527 19.0614 175.527C16.7016 175.527 14.7886 177.44 14.7886 179.8C14.7886 182.16 16.7016 184.073 19.0614 184.073Z" stroke="#A0A0A0" stroke-width="2"/>
<path d="M27.4342 180.235C36.0526 179.348 49.5756 180.397 51.174 187.064C52.7723 193.731 46.6688 196.169 43.4174 196.555C31.0383 198.522 14.6241 197.596 14.6241 187.064" stroke="#A0A0A0" stroke-width="2" stroke-linecap="round"/>
<path d="M24.3203 190.318C24.8648 190.318 25.3063 189.877 25.3063 189.332C25.3063 188.788 24.8648 188.346 24.3203 188.346C23.7757 188.346 23.3342 188.788 23.3342 189.332C23.3342 189.877 23.7757 190.318 24.3203 190.318Z" stroke="#A0A0A0" stroke-width="2"/>
<path d="M33.8519 189.332C33.8519 189.811 33.4056 190.318 32.7015 190.318C31.9974 190.318 31.5511 189.811 31.5511 189.332C31.5511 188.853 31.9974 188.346 32.7015 188.346C33.4056 188.346 33.8519 188.853 33.8519 189.332Z" stroke="#A0A0A0" stroke-width="2"/>
<path d="M41.083 190.318C41.6275 190.318 42.069 189.877 42.069 189.332C42.069 188.788 41.6275 188.346 41.083 188.346C40.5384 188.346 40.0969 188.788 40.0969 189.332C40.0969 189.877 40.5384 190.318 41.083 190.318Z" stroke="#A0A0A0" stroke-width="2"/>
<path d="M343.301 63.7774C345.48 63.7774 347.245 62.0116 347.245 59.8333C347.245 57.655 345.48 55.8892 343.301 55.8892C341.123 55.8892 339.357 57.655 339.357 59.8333C339.357 62.0116 341.123 63.7774 343.301 63.7774Z" stroke="#A0A0A0" stroke-width="2"/>
<path d="M351.05 56.3813C353.94 56.3813 362.199 56.3813 366.084 56.3813C369.231 56.3813 370.745 57.0775 370.745 61.9498C370.745 66.6837 370.706 72.8159 370.745 75.2908C370.772 77.0308 369.906 78.9565 367.016 79.2349C364.126 79.5133 352.526 79.351 347.088 79.2349C345.068 79.2349 341.494 78.0898 341.494 73.4344V68.2141" stroke="#A0A0A0" stroke-width="2" stroke-linecap="round"/>
<path d="M349.053 64.5986L356.284 69.5288" stroke="#A0A0A0" stroke-width="2" stroke-linecap="round"/>
<path d="M356.284 69.5292L369.431 57.3682" stroke="#A0A0A0" stroke-width="2" stroke-linecap="round"/>
<path d="M359.616 66.5713L363.209 70.1867L366.802 73.8022" stroke="#A0A0A0" stroke-width="2" stroke-linecap="round"/>
<path d="M346.424 73.8022L351.724 66.5713" stroke="#A0A0A0" stroke-width="2" stroke-linecap="round"/>
<path d="M372.206 310.279C371.114 311.373 370.172 312.316 369.523 312.966C367.832 314.659 366.056 313.671 365.379 312.966L354.59 302.57C352.998 301.089 351.651 299.627 345.631 293.884C345.015 293.267 344.038 291.691 345.062 290.324C346.086 288.957 351.841 281.78 354.59 278.362C355.424 277.154 357.237 275.717 359.549 277.866C361.54 279.718 368.366 286.125 374.197 290.997" stroke="#A0A0A0" stroke-width="2" stroke-linecap="round"/>
<path d="M354.476 278.732C354.816 284.967 357.104 295.003 368.938 298.781" stroke="#A0A0A0" stroke-width="2" stroke-linecap="round"/>
<path d="M384.487 299.263C383.944 297.885 379.78 296.279 378.206 299.263C376.584 302.342 377.824 304.934 378.879 305.443C380.227 306.092 382.206 306.432 384.296 302.695" stroke="#A0A0A0" stroke-width="2" stroke-linecap="round"/>
<path d="M384.832 297.344C384.71 298.064 384.585 298.367 384.487 299.263C384.359 300.43 384.276 301.654 384.296 302.695C384.336 304.521 384.697 305.781 385.723 305.173C387.78 303.953 388.891 302.953 389.187 301.932C389.68 300.216 389.683 296.931 386.909 294.783C383.563 292.19 379.79 292.26 376.822 294.783C373.875 297.287 373.069 301.295 373.23 303.375C373.407 305.65 375.105 310.535 380.644 310.612C386.183 310.688 389.184 307.702 389.644 306.304" stroke="#A0A0A0" stroke-width="2" stroke-linecap="round"/>
<path d="M92.8492 258.212C91.6676 253.651 87.7439 245.238 81.5043 248.082C75.2644 250.925 78.9041 256.02 81.5043 258.212C83.2538 259.397 87.0152 260.665 88.063 256.257C89.1109 251.849 84.6951 250.036 83.454 251.992C82.7996 252.762 82.0604 254.693 84.3404 256.257" stroke="#A0A0A0" stroke-width="2" stroke-linecap="round"/>
<path d="M120.696 36.9763C120.406 35.3441 122.114 34.0885 123.585 34.8513L126.529 36.3767C127.698 36.9827 129.09 36.975 130.252 36.3557L133.177 34.7963C134.64 34.0166 136.361 35.2525 136.09 36.8879L135.549 40.1589C135.334 41.4576 135.772 42.7796 136.72 43.6931L139.107 45.9935C140.3 47.1437 139.657 49.1629 138.019 49.4109L134.741 49.9063C133.439 50.1031 132.317 50.9278 131.741 52.1117L130.291 55.0932C129.566 56.5838 127.446 56.5959 126.704 55.114L125.22 52.1494C124.63 50.9722 123.499 50.16 122.195 49.9781L118.912 49.5199C117.27 49.2907 116.604 47.2789 117.784 46.1151L120.145 43.7874C121.082 42.863 121.505 41.5363 121.275 40.2401L120.696 36.9763Z" stroke="#A0A0A0" stroke-width="2"/>
<path d="M222.184 184.045V211.983" stroke="black" stroke-width="2" stroke-linecap="round"/>
<path d="M243.219 187.332V213.955" stroke="black" stroke-width="2" stroke-linecap="round"/>
<path d="M194.019 308.312C187.073 309.177 170.812 312.367 167.25 318.853C166.182 320.799 164.942 325.535 168.532 328.907C172.123 332.28 178.684 331.394 181.516 330.529L198.026 323.88" stroke="black" stroke-width="2" stroke-linecap="round"/>
<path d="M288.675 259.365C275.715 259.782 218.472 287.494 191.47 301.299C189.171 316.51 198.874 327.432 204.013 330.991C230.927 323.178 286.166 307.342 291.811 306.508C297.455 305.675 303.047 301.646 305.137 299.736C319.77 282.65 308.97 268.134 301.74 263.011C296.594 259.364 292.151 259.253 288.675 259.365Z" fill="black"/>
<path d="M167.272 255.488C176.455 256.101 216.514 271.626 235.495 279.763L192.087 301.454C172.66 307.151 160.726 305.275 157.082 304.047C136.044 293.911 144.286 268.906 152.645 259.644C158.032 255.058 163.982 255.269 167.272 255.488Z" fill="black"/>
<path d="M269.476 311.271C275.215 314.029 278.318 317.642 279.892 320.606C283.264 328.323 277.209 332.961 270.297 330.78C266.477 329.575 265.576 328.767 263.553 327.09C262.527 326.238 257.732 321.783 252.258 316.521" stroke="black" stroke-width="2" stroke-linecap="round"/>
<path d="M159.651 186.564L163.324 253.312C163.615 258.614 167.999 262.763 173.309 262.763H283.178C288.701 262.763 293.178 258.286 293.178 252.763V184.484C293.178 178.909 288.618 174.41 283.043 174.485L169.501 176.016C163.816 176.092 159.338 180.887 159.651 186.564Z" fill="black"/>
<rect x="163.022" y="263.914" width="130.156" height="6.24486" rx="3.12243" fill="black"/>
<path d="M243.548 139.674C254.997 139.51 280.195 148.219 290.22 175.664" stroke="black" stroke-width="2" stroke-linecap="round"/>
<path d="M218.404 139.509C192.274 144.603 179.784 155.778 169.924 177.307" stroke="black" stroke-width="2" stroke-linecap="round"/>
<path d="M305.832 165.502L312.241 154.82" stroke="black" stroke-width="2" stroke-linecap="round"/>
<path d="M312.241 168.461L320.951 161.23" stroke="black" stroke-width="2" stroke-linecap="round"/>
<path d="M313.556 173.39C315.254 174.048 319.111 174.672 320.951 171.911" stroke="black" stroke-width="2" stroke-linecap="round"/>
<path d="M145.438 163.502L135.577 153.313" stroke="black" stroke-width="2" stroke-linecap="round"/>
<path d="M155.462 161.859L149.546 146.575" stroke="black" stroke-width="2" stroke-linecap="round"/>
<path d="M142.973 169.254L135.577 166.461" stroke="black" stroke-width="2" stroke-linecap="round"/>
<path d="M296.793 194.097C302.874 203.629 309.776 214.968 296.793 236.304" stroke="black" stroke-width="2" stroke-linecap="round"/>
<path d="M243.712 140.495C245.191 136.222 243.844 133.347 242.529 132.799C234.641 140.03 222.677 137.346 218.24 132.964C216.662 134.41 217.582 138.687 218.239 140.002C226.785 149.468 238.946 144.165 243.712 140.495Z" fill="black"/>
<path d="M208.708 166.789L209.371 165.772C213.091 160.061 220.333 157.781 226.655 160.33V160.33C232.331 162.619 238.834 161.031 242.817 156.384L247.985 150.355" stroke="black" stroke-width="2" stroke-linecap="round"/>
<path d="M157.27 200.151C154.805 205.958 151.88 220.036 159.9 229.896" stroke="black" stroke-width="2" stroke-linecap="round"/>
<path d="M266.372 73.316C262.757 86.2987 260.949 87.4491 255.69 93.2009C255.69 87.5165 254.714 77.9751 254.714 74.0021C237.495 74.0021 222.963 66.9729 217.849 63.4583C218.032 75.3774 206.858 83.1706 206.858 83.1706C206.858 83.1706 208.461 87.984 209.377 98.757C210.11 107.375 208.003 105.71 206.858 103.8C203.561 93.1642 198.157 96.0065 195.867 98.757C167.769 53.1023 210.979 44.2809 219.223 45.1213C225.451 39.8036 234.136 35.6363 240.242 35.0251C262.264 32.8207 272.235 52.2649 266.372 73.316Z" fill="black"/>
<path d="M207.243 111.924C210.201 129.984 230.056 142.969 244.384 128.34C258.711 113.711 255.844 86.933 254.313 74.4373" stroke="black" stroke-width="2" stroke-linecap="round"/>
<path d="M195.542 97.6377C193.735 102.075 195.431 111.907 207.243 111.907" stroke="black" stroke-width="2" stroke-linecap="round"/>
<path d="M200.752 100.075C200.491 101.025 200.7 103.274 203.628 104.677" stroke="black" stroke-width="2" stroke-linecap="round"/>
<path d="M253.915 109.607C257.771 107.999 260.489 102.047 259.443 92.5154" stroke="black" stroke-width="2" stroke-linecap="round"/>
<path d="M232.223 120.453C236.002 121.439 235.763 118.726 238.632 116.345" stroke="black" stroke-width="2" stroke-linecap="round"/>
<ellipse cx="243.506" cy="97.4949" rx="2.46508" ry="2.46508" fill="black"/>
<ellipse cx="221.813" cy="97.823" rx="2.46508" ry="2.46508" fill="black"/>
<path d="M216.446 92.1867C216.965 90.6594 219.203 87.8338 224.006 88.7502" stroke="black" stroke-width="2" stroke-linecap="round"/>
<path d="M239.453 89.2285C240.599 88.2364 243.714 86.8475 247.013 89.2285" stroke="black" stroke-width="2" stroke-linecap="round"/>
<path d="M231.502 96.1299C231.119 99.3753 230.859 105.957 232.88 106.319" stroke="black" stroke-width="2" stroke-linecap="round"/>
<path d="M326.21 245.206C370.088 257.367 448.905 271.336 413.145 229.923C401.86 218.803 385.207 205.765 358.42 194.261" stroke="#A0A0A0" stroke-width="2" stroke-linecap="round"/>
<path d="M373.704 160.239C400.984 142.765 444.928 106.665 402.463 102.063C359.998 97.462 321.225 113.403 307.147 121.948" stroke="#A0A0A0" stroke-width="2" stroke-linecap="round"/>
<path d="M268.034 134.703C286.111 95.7551 315.364 15.0321 287.755 3.72556C253.244 -10.4076 208.544 30.3484 172.06 127.637" stroke="#A0A0A0" stroke-width="2" stroke-linecap="round"/>
<path d="M131.857 101.152C91.4294 79.0213 8.89854 44.9813 2.19353 85.8687C-4.51149 126.756 77.4058 160.862 119.203 172.804" stroke="#A0A0A0" stroke-width="2" stroke-linecap="round"/>
<path d="M129.934 194.261C70.9367 224.335 -2.98625 265.928 37.9603 287.606C54.7226 296.48 97.6151 291.057 117.336 283.004" stroke="#A0A0A0" stroke-width="2" stroke-linecap="round"/>
<ellipse cx="226.457" cy="391.14" rx="81.3476" ry="9.86031" fill="#A0A0A0"/>
</svg>
