<svg width="150" height="151" viewBox="0 0 150 151" fill="none" xmlns="http://www.w3.org/2000/svg">
<rect y="0.5" width="150" height="150" rx="20" fill="black"/>
<path d="M110.7 73.7955C112.958 76.0534 112.958 79.7142 110.7 81.9721C108.442 84.23 104.781 84.23 102.523 81.9721L94.7062 74.1551C89.6665 69.1154 81.0494 72.6847 81.0494 79.8119L81.0494 104.809C81.0494 108.002 78.4608 110.591 75.2675 110.591C72.0743 110.591 69.4857 108.002 69.4857 104.809V78.4488C69.4857 71.3216 60.8686 67.7522 55.8288 72.792L46.6487 81.9721C44.3908 84.23 40.73 84.23 38.4721 81.9721C36.2142 79.7142 36.2142 76.0534 38.4721 73.7955L68.9291 43.3384C72.0533 40.2143 77.1186 40.2143 80.2428 43.3384L110.7 73.7955Z" fill="white"/>
</svg>
